<?xml version="1.0" encoding="UTF-8"?> <svg xmlns="http://www.w3.org/2000/svg" id="Calque_2" viewBox="0 0 360.32 159.77"><defs><style>.cls-1{fill:#fff;stroke-width:0px;}</style></defs><g id="Calque_1-2"><path class="cls-1" d="m181.52,0c-3.47,0-6.29,2.82-6.29,6.29v23.57c0,3.47,2.82,6.29,6.29,6.29s6.29-2.82,6.29-6.29V6.29c0-3.47-2.82-6.29-6.29-6.29Z"></path><path class="cls-1" d="m157.19,23.7c-3.48,0-6.31,2.83-6.31,6.31v23.67c0,3.48,2.83,6.31,6.31,6.31s6.31-2.83,6.31-6.31v-23.67c0-3.48-2.83-6.31-6.31-6.31Z"></path><path class="cls-1" d="m205.88,23.75c-3.48,0-6.31,2.83-6.31,6.31v23.64c0,3.48,2.83,6.31,6.31,6.31s6.31-2.83,6.31-6.31v-23.64c0-3.48-2.83-6.31-6.31-6.31Z"></path><path class="cls-1" d="m157.19,0c-3.48,0-6.31,2.83-6.31,6.31v5.8c0,3.48,2.83,6.31,6.31,6.31s6.31-2.83,6.31-6.31v-5.8c0-3.48-2.83-6.31-6.31-6.31Z"></path><path class="cls-1" d="m205.88.08c-3.48,0-6.31,2.83-6.31,6.31v5.79c0,3.48,2.83,6.31,6.31,6.31s6.31-2.83,6.31-6.31v-5.79c0-3.48-2.83-6.31-6.31-6.31Z"></path><path class="cls-1" d="m181.52,41.64c-3.47,0-6.29,2.82-6.29,6.29v11.35c0,3.47,2.82,6.29,6.29,6.29s6.29-2.82,6.29-6.29v-11.35c0-3.47-2.82-6.29-6.29-6.29Z"></path><rect class="cls-1" x="175.22" y="77.69" width="12.5" height="61.18"></rect><path class="cls-1" d="m196.21,93.1s.01-.06.02-.08h.02c1.24-7.98,4.87-15.59,10.68-21.69l9.07,8.59c-4.15,4.36-6.69,9.84-7.47,15.57-.09.65-.16,1.3-.2,1.95-.02.31-.03.62-.04.94-.02.68-.03,1.36,0,2.04,0,.24.03.48.05.72.05.71.11,1.41.21,2.1.03.18.06.35.09.53.13.77.27,1.53.46,2.28.02.08.04.17.07.25.14.54.3,1.07.47,1.59.42,1.29.94,2.54,1.54,3.75.96,1.94,2.13,3.77,3.5,5.44.23.29.47.57.71.85.05.06.1.11.15.17.55.61,1.12,1.19,1.72,1.75.04.04.08.08.13.12.61.56,1.25,1.09,1.9,1.6.11.09.23.17.35.26.65.49,1.32.96,2.02,1.39.04.02.08.04.11.07.73.45,1.49.86,2.26,1.25.03.02.07.04.1.05.75.37,1.53.69,2.33,1,.24.09.49.17.74.25.52.18,1.05.35,1.59.5.37.1.74.2,1.11.29.64.15,1.29.29,1.94.4,1.09.18,2.18.3,3.28.35.12,0,.25.01.37.02.38.01.77.01,1.15.01.27,0,.55,0,.82-.01.26,0,.52-.02.78-.04.41-.03.82-.06,1.24-.1.16-.02.31-.03.47-.05.39-.05.78-.1,1.17-.17.12-.02.25-.04.37-.06.4-.07.81-.15,1.21-.24.13-.03.27-.06.4-.09.35-.08.7-.17,1.04-.27.66-.18,1.3-.39,1.94-.62.28-.1.56-.22.84-.33.44-.17.87-.36,1.29-.55.35-.16.69-.33,1.03-.5.33-.17.65-.35.97-.53.39-.22.79-.44,1.17-.68.41-.26.82-.53,1.22-.81,1.5-1.05,2.91-2.23,4.18-3.55.04-.04.08-.08.11-.12.31-.33.62-.67.92-1.01.1-.12.2-.23.3-.35.14-.17.28-.34.42-.52.07-.08.13-.16.2-.25.15-.19.3-.38.44-.57.04-.05.07-.11.11-.16.64-.88,1.21-1.79,1.73-2.72.06-.11.14-.23.2-.34.21-.38.4-.76.59-1.14.21-.43.41-.86.59-1.3.12-.29.24-.58.35-.88.1-.25.18-.51.27-.77.1-.27.2-.54.29-.82.1-.31.19-.62.28-.93.14-.5.27-1.01.38-1.52.08-.37.16-.75.23-1.13.07-.4.13-.8.19-1.2.1-.73.18-1.46.22-2.19.01-.23.02-.45.02-.68,0-.24,0-.48.01-.72,0-.48,0-.96-.02-1.43,0-.2-.03-.4-.04-.6-.05-.75-.12-1.49-.23-2.23-.02-.13-.04-.27-.07-.4-.09-.57-.21-1.14-.33-1.7-.05-.23-.1-.47-.16-.7-.01-.04-.02-.09-.03-.13-1.12-4.33-3.27-8.31-6.2-11.62-.1-.11-.2-.22-.3-.33-.4-.44-.83-.87-1.27-1.28-.56-.53-1.14-1.05-1.73-1.53-3.77-3.09-8.37-5.26-13.53-6.05-2.55-.39-5.07-.4-7.52-.12l-4.24-11.99c4.39-.82,8.99-.93,13.65-.22,6.44.99,12.28,3.45,17.27,6.97.35.25.71.5,1.06.76.09.07.18.14.26.21.44.34.88.69,1.32,1.05.02.02.04.03.06.05,2.45,2.05,4.7,4.41,6.67,7.09,2.75,3.74,4.75,7.79,6.05,11.99.02.08.05.15.07.23.14.46.27.92.39,1.39.06.22.12.44.18.67.07.28.13.55.19.83.01.05.02.09.03.14.08.37.16.74.24,1.11.03.18.07.36.1.55.09.51.18,1.02.25,1.54,0,.04,0,.08.02.12.26,1.88.39,3.79.38,5.72,0,1.92-.16,3.87-.45,5.83,0,.03,0,.06-.01.08-.39,2.52-1.01,4.98-1.84,7.35-.78,2.21-1.76,4.35-2.92,6.4-.05.08-.09.17-.14.25-.09.15-.19.29-.27.44-.33.56-.68,1.12-1.04,1.66-.17.25-.34.49-.51.74-.37.54-.76,1.07-1.15,1.59-.12.16-.24.31-.36.47-.05.06-.1.11-.14.17-2.18,2.74-4.75,5.25-7.71,7.43-.02.02-.04.03-.07.05-.77.56-1.56,1.09-2.36,1.59,0,0,0,0,0,0-1.72,1.08-3.5,2.03-5.35,2.84-.04.02-.07.03-.11.05,0,0,0,0-.01,0-.85.37-1.72.71-2.6,1.02-.04.01-.07.03-.1.04-.04.01-.08.02-.12.04-.9.31-1.81.6-2.73.85-2.06.56-4.16.93-6.28,1.15-.29.03-.58.05-.87.08-.71.06-1.42.1-2.14.13-.45.02-.9.03-1.35.03-.55,0-1.09-.02-1.64-.04-.54-.02-1.07-.04-1.61-.08-.47-.04-.93-.1-1.4-.15-.52-.06-1.05-.09-1.57-.17-.93-.14-1.84-.33-2.74-.53-.05-.01-.09-.02-.14-.03-.86-.2-1.72-.42-2.55-.67-.04-.01-.07-.02-.11-.03-.02,0-.03-.01-.05-.02-.98-.3-1.95-.63-2.9-1-.07-.03-.15-.05-.22-.08-.11-.04-.22-.1-.34-.15-.69-.28-1.37-.57-2.04-.89-.1-.05-.21-.09-.31-.14-.03-.02-.07-.04-.1-.05-.85-.41-1.68-.85-2.49-1.32-.13-.07-.26-.15-.38-.22-1.21-.71-2.38-1.48-3.5-2.3-.12-.09-.25-.18-.38-.27-.22-.17-.44-.34-.65-.51-.3-.24-.6-.47-.9-.72-.13-.11-.26-.22-.38-.33-.4-.34-.79-.68-1.17-1.03-.04-.04-.08-.08-.13-.12-1.36-1.26-2.64-2.61-3.83-4.05-.46-.55-.9-1.12-1.33-1.7-1.45-1.97-2.68-4.03-3.72-6.15-.87-1.77-1.6-3.59-2.19-5.43-.04-.12-.08-.25-.12-.37-.04-.12-.08-.24-.11-.35-.12-.41-.24-.83-.35-1.24-.07-.27-.15-.54-.21-.81-.07-.27-.12-.54-.19-.81-.09-.42-.19-.84-.27-1.27-.02-.12-.04-.24-.06-.37-.79-4.31-.89-8.81-.19-13.38Z"></path><polygon class="cls-1" points="159.76 71.02 142.56 71.02 130.15 87.34 108.43 58.7 91.58 58.7 121.62 98.55 90.19 139.84 107.63 139.84 130.25 109.99 152.02 138.87 169.09 138.67 138.78 98.72 159.76 71.02"></polygon><polygon class="cls-1" points="337.87 137.89 117.87 137.89 116.39 139.84 337.87 139.84 337.87 137.89"></polygon><polygon class="cls-1" points="97.1 137.89 34.13 137.89 33.15 139.84 97.1 139.84 97.1 137.89"></polygon><path class="cls-1" d="m15.42,159.36H0L48.72,63.3c1.5-2.97,4.51-4.85,7.83-4.92.06,0,.13,0,.19,0,3.26,0,6.25,1.75,7.84,4.6l42.39,75.7h-15.77l-34.26-61.18-14.58,28.73c2.32-.46,4.71-.7,7.14-.7h12.94l7.7,13.76h-20.64c-8.49,0-16.14,4.7-19.98,12.27l-14.1,27.82Z"></path><path class="cls-1" d="m348.55,58.7v7.54c0,15.51-11.91,28.12-26.54,28.12s-26.54-12.62-26.54-28.14l-.02-7.54-11.77.03v6.14s0-.02,0-.03v75.05h11.76v-44.43c6.89,7.04,16.25,11.38,26.56,11.38s19.65-4.34,26.54-11.36v63.92h11.77V58.7h-11.77Z"></path><path class="cls-1" d="m36.96,159.57c-.15,0-.27-.05-.36-.14s-.14-.21-.14-.36v-10.36h-3.56c-.15,0-.27-.05-.36-.15-.09-.1-.14-.22-.14-.35v-2.14c0-.15.05-.27.14-.36.09-.09.21-.14.36-.14h10.76c.15,0,.27.05.36.14.09.09.14.21.14.36v2.14c0,.13-.05.25-.14.35-.09.1-.21.15-.36.15h-3.56v10.36c0,.15-.05.27-.14.36-.09.09-.21.14-.36.14h-2.64Z"></path><path class="cls-1" d="m50.66,159.57c-.15,0-.27-.05-.36-.14s-.14-.21-.14-.36v-13c0-.15.05-.27.14-.36s.21-.14.36-.14h2.58c.15,0,.27.05.36.14.09.09.14.21.14.36v4.82h4.94v-4.82c0-.15.05-.27.14-.36.09-.09.21-.14.36-.14h2.58c.15,0,.27.05.36.14.09.09.14.21.14.36v13c0,.15-.05.27-.14.36-.09.09-.21.14-.36.14h-2.58c-.15,0-.27-.05-.36-.14-.09-.09-.14-.21-.14-.36v-4.98h-4.94v4.98c0,.15-.05.27-.14.36-.09.09-.21.14-.36.14h-2.58Z"></path><path class="cls-1" d="m69.74,159.57c-.15,0-.27-.05-.36-.14s-.14-.21-.14-.36v-13c0-.15.05-.27.14-.36s.21-.14.36-.14h9.34c.15,0,.27.05.36.14s.14.21.14.36v1.88c0,.15-.05.27-.14.36s-.21.14-.36.14h-6.38v2.7h5.94c.15,0,.27.05.36.15.09.1.14.22.14.37v1.74c0,.13-.05.25-.14.35-.09.1-.21.15-.36.15h-5.94v2.78h6.54c.15,0,.27.05.36.14s.14.21.14.36v1.88c0,.15-.05.27-.14.36s-.21.14-.36.14h-9.5Z"></path><path class="cls-1" d="m95.14,159.57c-.15,0-.27-.05-.36-.14s-.14-.21-.14-.36v-13c0-.15.05-.27.14-.36s.21-.14.36-.14h9.18c.15,0,.27.05.37.14.1.09.15.21.15.36v2.02c0,.15-.05.27-.15.36-.1.09-.22.14-.37.14h-6.16v2.94h5.76c.15,0,.27.05.37.15.1.1.15.22.15.37v2c0,.13-.05.25-.15.35-.1.1-.22.15-.37.15h-5.76v4.52c0,.15-.05.27-.14.36-.09.09-.21.14-.36.14h-2.52Z"></path><path class="cls-1" d="m111.66,159.57c-.15,0-.27-.05-.36-.14s-.14-.21-.14-.36v-13c0-.15.05-.27.14-.36s.21-.14.36-.14h5.44c1.72,0,3.08.4,4.07,1.19.99.79,1.49,1.92,1.49,3.37,0,.95-.23,1.75-.69,2.4s-1.06,1.15-1.81,1.48l2.76,4.92c.04.08.06.15.06.22,0,.11-.04.2-.13.29s-.19.13-.31.13h-2.64c-.25,0-.44-.06-.56-.19-.12-.13-.21-.24-.26-.35l-2.28-4.4h-2.06v4.44c0,.15-.05.27-.14.36-.09.09-.21.14-.36.14h-2.58Zm3.08-7.76h2.32c.63,0,1.1-.15,1.41-.46s.47-.73.47-1.26-.15-.94-.45-1.26c-.3-.32-.78-.48-1.43-.48h-2.32v3.46Z"></path><path class="cls-1" d="m129.66,159.57c-.15,0-.27-.05-.36-.14s-.14-.21-.14-.36v-13c0-.15.05-.27.14-.36s.21-.14.36-.14h9.34c.15,0,.27.05.36.14s.14.21.14.36v1.88c0,.15-.05.27-.14.36s-.21.14-.36.14h-6.38v2.7h5.94c.15,0,.27.05.36.15.09.1.14.22.14.37v1.74c0,.13-.05.25-.14.35-.09.1-.21.15-.36.15h-5.94v2.78h6.54c.15,0,.27.05.36.14s.14.21.14.36v1.88c0,.15-.05.27-.14.36s-.21.14-.36.14h-9.5Z"></path><path class="cls-1" d="m146.62,159.57c-.15,0-.27-.05-.36-.14s-.14-.21-.14-.36v-13c0-.15.05-.27.14-.36s.21-.14.36-.14h2.12c.23,0,.39.05.49.15.1.1.16.18.19.23l4.88,7.7v-7.58c0-.15.05-.27.14-.36.09-.09.21-.14.36-.14h2.4c.15,0,.27.05.36.14.09.09.14.21.14.36v13c0,.13-.05.25-.14.35-.09.1-.21.15-.36.15h-2.14c-.21,0-.37-.05-.47-.16-.1-.11-.16-.18-.19-.22l-4.88-7.4v7.28c0,.15-.05.27-.14.36-.09.09-.21.14-.36.14h-2.4Z"></path><path class="cls-1" d="m170.42,159.77c-1.27,0-2.35-.21-3.25-.62-.9-.41-1.6-1.02-2.1-1.82s-.78-1.79-.83-2.98c-.01-.55-.02-1.13-.02-1.76s0-1.23.02-1.8c.05-1.16.33-2.14.84-2.95.51-.81,1.21-1.42,2.12-1.84.91-.42,1.98-.63,3.22-.63.88,0,1.69.11,2.44.33.75.22,1.4.54,1.96.96s1,.93,1.31,1.52c.31.59.48,1.26.49,2.01.01.12-.02.22-.11.3-.09.08-.19.12-.31.12h-2.7c-.17,0-.31-.04-.4-.11-.09-.07-.17-.21-.24-.41-.19-.71-.49-1.19-.91-1.45-.42-.26-.94-.39-1.55-.39-.73,0-1.31.2-1.74.61-.43.41-.66,1.08-.7,2.03-.04,1.09-.04,2.21,0,3.36.04.95.27,1.62.7,2.03.43.41,1.01.61,1.74.61.61,0,1.13-.13,1.56-.4s.73-.75.9-1.44c.05-.2.13-.34.23-.41.1-.07.24-.11.41-.11h2.7c.12,0,.22.04.31.12.09.08.12.18.11.3-.01.75-.18,1.42-.49,2.01-.31.59-.75,1.1-1.31,1.52s-1.21.74-1.96.96c-.75.22-1.56.33-2.44.33Z"></path><path class="cls-1" d="m183.4,159.57c-.15,0-.27-.05-.36-.14s-.14-.21-.14-.36v-13c0-.15.05-.27.14-.36s.21-.14.36-.14h2.58c.15,0,.27.05.36.14.09.09.14.21.14.36v4.82h4.94v-4.82c0-.15.05-.27.14-.36.09-.09.21-.14.36-.14h2.58c.15,0,.27.05.36.14.09.09.14.21.14.36v13c0,.15-.05.27-.14.36-.09.09-.21.14-.36.14h-2.58c-.15,0-.27-.05-.36-.14-.09-.09-.14-.21-.14-.36v-4.98h-4.94v4.98c0,.15-.05.27-.14.36-.09.09-.21.14-.36.14h-2.58Z"></path><path class="cls-1" d="m216.2,159.77c-1.27,0-2.36-.21-3.27-.63-.91-.42-1.62-1.03-2.12-1.84s-.78-1.79-.83-2.95c-.01-.57-.02-1.18-.02-1.83s0-1.26.02-1.85c.05-1.13.33-2.09.84-2.88.51-.79,1.22-1.39,2.14-1.8.92-.41,2-.62,3.24-.62,1,0,1.89.12,2.66.37.77.25,1.42.58,1.95.99.53.41.93.87,1.2,1.36.27.49.42.98.43,1.46.01.12-.02.22-.11.3s-.19.12-.31.12h-2.92c-.15,0-.26-.02-.33-.07s-.14-.12-.19-.21c-.09-.2-.23-.41-.41-.63-.18-.22-.43-.41-.74-.57-.31-.16-.72-.24-1.23-.24-.76,0-1.36.2-1.79.6-.43.4-.67,1.04-.71,1.92-.04,1.15-.04,2.31,0,3.48.04.93.29,1.61.74,2.02s1.05.62,1.8.62c.51,0,.96-.09,1.35-.26.39-.17.7-.44.93-.81.23-.37.34-.84.34-1.41v-.38h-1.88c-.15,0-.27-.05-.37-.15s-.15-.22-.15-.37v-1.48c0-.15.05-.27.15-.37.1-.1.22-.15.37-.15h5.04c.15,0,.27.05.36.15.09.1.14.22.14.37v2.28c0,1.15-.26,2.13-.78,2.94-.52.81-1.26,1.44-2.21,1.87-.95.43-2.06.65-3.33.65Z"></path><path class="cls-1" d="m229.5,159.57c-.15,0-.27-.05-.36-.14s-.14-.21-.14-.36v-13c0-.15.05-.27.14-.36s.21-.14.36-.14h9.34c.15,0,.27.05.36.14s.14.21.14.36v1.88c0,.15-.05.27-.14.36s-.21.14-.36.14h-6.38v2.7h5.94c.15,0,.27.05.36.15.09.1.14.22.14.37v1.74c0,.13-.05.25-.14.35-.09.1-.21.15-.36.15h-5.94v2.78h6.54c.15,0,.27.05.36.14s.14.21.14.36v1.88c0,.15-.05.27-.14.36s-.21.14-.36.14h-9.5Z"></path><path class="cls-1" d="m246.46,159.57c-.15,0-.27-.05-.36-.14s-.14-.21-.14-.36v-13c0-.15.05-.27.14-.36s.21-.14.36-.14h2.12c.23,0,.39.05.49.15.1.1.16.18.19.23l4.88,7.7v-7.58c0-.15.05-.27.14-.36.09-.09.21-.14.36-.14h2.4c.15,0,.27.05.36.14.09.09.14.21.14.36v13c0,.13-.05.25-.14.35-.09.1-.21.15-.36.15h-2.14c-.21,0-.37-.05-.47-.16-.1-.11-.16-.18-.19-.22l-4.88-7.4v7.28c0,.15-.05.27-.14.36-.09.09-.21.14-.36.14h-2.4Z"></path><path class="cls-1" d="m265.02,159.57c-.15,0-.27-.05-.36-.14s-.14-.21-.14-.36v-13c0-.15.05-.27.14-.36s.21-.14.36-.14h9.34c.15,0,.27.05.36.14s.14.21.14.36v1.88c0,.15-.05.27-.14.36s-.21.14-.36.14h-6.38v2.7h5.94c.15,0,.27.05.36.15.09.1.14.22.14.37v1.74c0,.13-.05.25-.14.35-.09.1-.21.15-.36.15h-5.94v2.78h6.54c.15,0,.27.05.36.14s.14.21.14.36v1.88c0,.15-.05.27-.14.36s-.21.14-.36.14h-9.5Z"></path><path class="cls-1" d="m285.06,159.57c-.15,0-.27-.05-.36-.14s-.14-.21-.14-.36v-10.36h-3.56c-.15,0-.27-.05-.36-.15-.09-.1-.14-.22-.14-.35v-2.14c0-.15.05-.27.14-.36.09-.09.21-.14.36-.14h10.76c.15,0,.27.05.36.14.09.09.14.21.14.36v2.14c0,.13-.05.25-.14.35-.09.1-.21.15-.36.15h-3.56v10.36c0,.15-.05.27-.14.36-.09.09-.21.14-.36.14h-2.64Z"></path><path class="cls-1" d="m298.76,159.57c-.15,0-.27-.05-.36-.14s-.14-.21-.14-.36v-13c0-.15.05-.27.14-.36s.21-.14.36-.14h2.68c.15,0,.27.05.36.14.09.09.14.21.14.36v13c0,.15-.05.27-.14.36-.09.09-.21.14-.36.14h-2.68Z"></path><path class="cls-1" d="m314.66,159.77c-1.27,0-2.35-.21-3.25-.62-.9-.41-1.6-1.02-2.1-1.82s-.78-1.79-.83-2.98c-.01-.55-.02-1.13-.02-1.76s0-1.23.02-1.8c.05-1.16.33-2.14.84-2.95.51-.81,1.21-1.42,2.12-1.84.91-.42,1.98-.63,3.22-.63.88,0,1.69.11,2.44.33.75.22,1.4.54,1.96.96s1,.93,1.31,1.52c.31.59.48,1.26.49,2.01.01.12-.02.22-.11.3-.09.08-.19.12-.31.12h-2.7c-.17,0-.31-.04-.4-.11-.09-.07-.17-.21-.24-.41-.19-.71-.49-1.19-.91-1.45-.42-.26-.94-.39-1.55-.39-.73,0-1.31.2-1.74.61-.43.41-.66,1.08-.7,2.03-.04,1.09-.04,2.21,0,3.36.04.95.27,1.62.7,2.03.43.41,1.01.61,1.74.61.61,0,1.13-.13,1.56-.4s.73-.75.9-1.44c.05-.2.13-.34.23-.41.1-.07.24-.11.41-.11h2.7c.12,0,.22.04.31.12.09.08.12.18.11.3-.01.75-.18,1.42-.49,2.01-.31.59-.75,1.1-1.31,1.52s-1.21.74-1.96.96c-.75.22-1.56.33-2.44.33Z"></path><path class="cls-1" d="m332.36,159.77c-1.33,0-2.44-.19-3.32-.57s-1.55-.88-2-1.49c-.45-.61-.69-1.27-.72-1.96,0-.11.04-.2.13-.29.09-.09.19-.13.31-.13h2.52c.19,0,.33.03.43.1.1.07.19.15.27.26.11.2.26.39.45.58.19.19.45.34.76.45.31.11.7.17,1.17.17.77,0,1.36-.12,1.75-.36.39-.24.59-.57.59-.98,0-.29-.11-.54-.32-.73-.21-.19-.56-.37-1.03-.52-.47-.15-1.1-.31-1.89-.47-1.01-.21-1.88-.49-2.59-.83s-1.26-.79-1.63-1.34c-.37-.55-.56-1.24-.56-2.07s.23-1.54.69-2.18c.46-.64,1.1-1.14,1.93-1.5.83-.36,1.81-.54,2.94-.54.92,0,1.73.12,2.43.36.7.24,1.29.56,1.77.96.48.4.84.82,1.09,1.27.25.45.38.88.39,1.31,0,.11-.04.2-.12.29-.08.09-.18.13-.3.13h-2.64c-.15,0-.27-.03-.38-.08-.11-.05-.2-.14-.28-.26-.08-.29-.29-.55-.63-.77-.34-.22-.78-.33-1.33-.33-.59,0-1.04.1-1.37.31s-.49.52-.49.95c0,.27.09.5.27.7.18.2.48.37.9.52.42.15,1,.3,1.73.46,1.21.23,2.19.51,2.94.85.75.34,1.29.78,1.64,1.32s.52,1.22.52,2.03c0,.91-.26,1.69-.77,2.35-.51.66-1.22,1.16-2.13,1.51-.91.35-1.95.52-3.12.52Z"></path></g></svg> 