<?xml version="1.0" encoding="utf-8"?>
<!-- Generator: Adobe Illustrator 20.0.0, SVG Export Plug-In . SVG Version: 6.00 Build 0)  -->
<svg version="1.1" xmlns="http://www.w3.org/2000/svg" xmlns:xlink="http://www.w3.org/1999/xlink" x="0px" y="0px"
	 viewBox="0 0 180.4 120" style="enable-background:new 0 0 180.4 120;" xml:space="preserve">
<style type="text/css">
	.st0{fill:#6F896E;}
	.st1{fill:#FFFFFF;}
	.st2{fill:#35332F;}
	.st3{fill:#514D49;}
	.st4{fill:#A8A4A1;}
	.st5{fill:#E2E4DC;}
	.st6{fill:#FDFDFE;}
	.st7{fill:#3F6DB5;}
	.st8{fill:#DAEDD9;}
</style>
<g id="Layer_1">
	<rect x="26.7" y="36.1" class="st0" width="124.8" height="14.1"/>
	<g>
		<path class="st0" d="M18.6,13.1l12,0.1l0,3.6l-8.1,0l0,3.3l7.7,0l0,3.6l-7.7,0l0,3.6l8.6,0.1l0,3.6l-12.5-0.1L18.6,13.1z"/>
		<path class="st0" d="M39.1,26.2l-6.1,0l0-3l6.1,0L39.1,26.2z"/>
		<path class="st0" d="M40.6,27.3l9-10.6l-8.6-0.1l0-3.4l13.4,0.1l0,3.4l-8.9,10.6l9.1,0.1l0,3.6l-14-0.1L40.6,27.3z"/>
		<path class="st0" d="M56.3,22.2c0-1.4,0.3-2.7,0.7-3.8c0.5-1.1,1.1-2.1,2-2.9c0.9-0.8,1.9-1.4,3-1.8c1.2-0.4,2.4-0.6,3.8-0.6
			c1.4,0,2.7,0.2,3.8,0.7c1.2,0.4,2.2,1.1,3,1.9c0.8,0.8,1.5,1.8,2,2.9c0.5,1.2,0.7,2.4,0.7,3.9c0,1.4-0.3,2.7-0.7,3.8
			c-0.5,1.1-1.1,2.1-2,2.9c-0.9,0.8-1.9,1.4-3,1.8c-1.2,0.4-2.4,0.6-3.8,0.6c-1.4,0-2.7-0.2-3.8-0.7c-1.2-0.4-2.2-1.1-3-1.9
			c-0.8-0.8-1.5-1.8-2-2.9C56.5,24.9,56.3,23.6,56.3,22.2z M60.4,22.2c0,0.8,0.1,1.6,0.4,2.3c0.3,0.7,0.6,1.3,1.1,1.8
			c0.5,0.5,1.1,0.9,1.7,1.2c0.7,0.3,1.4,0.4,2.3,0.4c0.8,0,1.6-0.1,2.3-0.4c0.7-0.3,1.3-0.7,1.7-1.2c0.5-0.5,0.9-1.1,1.1-1.8
			c0.3-0.7,0.4-1.5,0.4-2.3c0-0.8-0.1-1.6-0.4-2.3c-0.3-0.7-0.6-1.3-1.1-1.8c-0.5-0.5-1.1-0.9-1.7-1.2c-0.7-0.3-1.4-0.4-2.3-0.4
			c-0.8,0-1.6,0.1-2.3,0.4c-0.7,0.3-1.3,0.7-1.7,1.2c-0.5,0.5-0.9,1.1-1.1,1.8C60.5,20.6,60.4,21.4,60.4,22.2z"/>
		<path class="st0" d="M77.1,22.3c0-1.4,0.3-2.7,0.7-3.8c0.5-1.1,1.1-2.1,2-2.9c0.9-0.8,1.9-1.4,3-1.8c1.2-0.4,2.4-0.6,3.8-0.6
			c1.4,0,2.7,0.2,3.8,0.7c1.2,0.4,2.2,1.1,3,1.9c0.8,0.8,1.5,1.8,2,2.9c0.5,1.2,0.7,2.4,0.7,3.9c0,1.4-0.3,2.7-0.7,3.8
			c-0.5,1.1-1.1,2.1-2,2.9c-0.9,0.8-1.9,1.4-3,1.8c-1.2,0.4-2.4,0.6-3.8,0.6c-1.4,0-2.7-0.2-3.8-0.7c-1.2-0.4-2.2-1.1-3-1.9
			c-0.8-0.8-1.5-1.8-2-2.9C77.3,25,77.1,23.7,77.1,22.3z M81.2,22.3c0,0.8,0.1,1.6,0.4,2.3c0.3,0.7,0.6,1.3,1.1,1.8
			c0.5,0.5,1.1,0.9,1.7,1.2c0.7,0.3,1.4,0.4,2.3,0.4c0.8,0,1.6-0.1,2.3-0.4c0.7-0.3,1.3-0.7,1.7-1.2c0.5-0.5,0.9-1.1,1.1-1.8
			c0.3-0.7,0.4-1.5,0.4-2.3c0-0.8-0.1-1.6-0.4-2.3c-0.3-0.7-0.6-1.3-1.1-1.8c-0.5-0.5-1.1-0.9-1.7-1.2c-0.7-0.3-1.4-0.4-2.3-0.4
			c-0.8,0-1.6,0.1-2.3,0.4c-0.7,0.3-1.3,0.7-1.7,1.2c-0.5,0.5-0.9,1.1-1.1,1.8C81.3,20.7,81.2,21.5,81.2,22.3z"/>
		<path class="st0" d="M102.3,17l-5,0l0-3.4l14,0.1l0,3.4l-5,0l-0.1,14.2l-3.9,0L102.3,17z"/>
		<path class="st0" d="M113.4,13.7l12,0.1l0,3.6l-8.1,0l0,3.3l7.7,0l0,3.6l-7.7,0l0,3.6l8.6,0.1l0,3.6l-12.5-0.1L113.4,13.7z"/>
		<path class="st0" d="M140.5,18.4c-0.4-0.5-0.8-0.8-1.4-1.1c-0.6-0.3-1.2-0.4-1.9-0.4c-0.7,0-1.4,0.1-2,0.4
			c-0.6,0.3-1.2,0.7-1.6,1.2c-0.5,0.5-0.8,1.1-1.1,1.8c-0.3,0.7-0.4,1.5-0.4,2.3c0,0.8,0.1,1.6,0.4,2.3c0.3,0.7,0.6,1.3,1.1,1.8
			c0.4,0.5,1,0.9,1.6,1.2c0.6,0.3,1.3,0.4,2,0.4c0.8,0,1.5-0.2,2.1-0.5c0.6-0.3,1.1-0.8,1.5-1.4l3.2,2.4c-0.8,1-1.7,1.8-2.9,2.3
			c-1.2,0.5-2.3,0.7-3.6,0.7c-1.4,0-2.7-0.2-3.8-0.7c-1.2-0.4-2.2-1.1-3-1.9c-0.8-0.8-1.5-1.8-2-2.9c-0.5-1.2-0.7-2.4-0.7-3.9
			c0-1.4,0.3-2.7,0.7-3.8c0.5-1.1,1.1-2.1,2-2.9c0.9-0.8,1.9-1.4,3-1.8c1.2-0.4,2.4-0.6,3.8-0.6c0.5,0,1,0.1,1.6,0.1
			c0.5,0.1,1.1,0.2,1.6,0.4c0.5,0.2,1,0.5,1.5,0.8c0.5,0.3,0.9,0.7,1.3,1.2L140.5,18.4z"/>
		<path class="st0" d="M146.1,13.9l3.9,0l0,6.6l7.6,0l0-6.6l3.9,0l-0.1,17.7l-3.9,0l0-7.6l-7.6,0l0,7.6l-3.9,0L146.1,13.9z"/>
	</g>
	<path class="st8" d="M89.8,42.6c-0.2-0.2-0.4-0.4-0.7-0.5c-0.3-0.1-0.6-0.2-0.9-0.2c-0.3,0-0.7,0.1-1,0.2c-0.3,0.1-0.5,0.3-0.7,0.5
		c-0.2,0.2-0.4,0.5-0.5,0.7c-0.1,0.3-0.2,0.6-0.2,0.9c0,0.3,0,0.6,0.2,0.9c0.1,0.3,0.3,0.5,0.5,0.8c0.2,0.2,0.4,0.4,0.7,0.5
		c0.3,0.1,0.6,0.2,0.9,0.2c0.3,0,0.7-0.1,1-0.2c0.3-0.1,0.5-0.3,0.7-0.5c0.2-0.2,0.4-0.5,0.5-0.7c0.1-0.3,0.2-0.6,0.2-0.9
		c0-0.3,0-0.6-0.2-0.9C90.1,43.1,90,42.8,89.8,42.6z"/>
	<path class="st8" d="M106.2,42.7c-0.2-0.2-0.4-0.4-0.7-0.5c-0.3-0.1-0.6-0.2-0.9-0.2c-0.3,0-0.7,0.1-1,0.2
		c-0.3,0.1-0.5,0.3-0.7,0.5c-0.2,0.2-0.4,0.5-0.5,0.7c-0.1,0.3-0.2,0.6-0.2,0.9c0,0.3,0,0.6,0.2,0.9c0.1,0.3,0.3,0.5,0.5,0.8
		c0.2,0.2,0.4,0.4,0.7,0.5c0.3,0.1,0.6,0.2,0.9,0.2c0.3,0,0.7-0.1,1-0.2c0.3-0.1,0.5-0.3,0.7-0.5c0.2-0.2,0.4-0.5,0.5-0.7
		s0.2-0.6,0.2-0.9c0-0.3,0-0.6-0.2-0.9C106.6,43.2,106.4,42.9,106.2,42.7z"/>
	<path class="st8" d="M129.4,44.6c-0.3,0-0.6,0.1-0.8,0.2c-0.2,0.1-0.4,0.2-0.6,0.4c-0.1,0.2-0.2,0.4-0.2,0.6c0,0.2,0,0.3,0.1,0.5
		c0.1,0.1,0.2,0.3,0.3,0.3c0.1,0.1,0.3,0.2,0.4,0.2c0.2,0,0.3,0.1,0.5,0.1c0.4,0,0.7-0.1,1-0.2c0.3-0.1,0.5-0.3,0.6-0.5
		c0.2-0.2,0.3-0.4,0.3-0.6c0.1-0.2,0.1-0.5,0.1-0.7l0-0.4l-0.8,0C130,44.5,129.7,44.5,129.4,44.6z"/>
	<path class="st8" d="M68,42.5c-0.2-0.2-0.4-0.4-0.7-0.5c-0.3-0.1-0.6-0.2-0.9-0.2c-0.3,0-0.7,0.1-1,0.2c-0.3,0.1-0.5,0.3-0.7,0.5
		c-0.2,0.2-0.4,0.5-0.5,0.7c-0.1,0.3-0.2,0.6-0.2,0.9c0,0.3,0,0.6,0.2,0.9c0.1,0.3,0.3,0.5,0.5,0.8c0.2,0.2,0.4,0.4,0.7,0.5
		c0.3,0.1,0.6,0.2,0.9,0.2c0.3,0,0.7-0.1,1-0.2c0.3-0.1,0.5-0.3,0.7-0.5c0.2-0.2,0.4-0.5,0.5-0.7s0.2-0.6,0.2-0.9
		c0-0.3,0-0.6-0.2-0.9C68.3,42.9,68.2,42.7,68,42.5z"/>
	<path class="st8" d="M43.4,42.3c-0.2-0.2-0.4-0.4-0.7-0.5c-0.3-0.1-0.6-0.2-0.9-0.2c-0.3,0-0.7,0.1-1,0.2c-0.3,0.1-0.5,0.3-0.7,0.5
		c-0.2,0.2-0.4,0.5-0.5,0.7c-0.1,0.3-0.2,0.6-0.2,0.9c0,0.3,0,0.6,0.2,0.9c0.1,0.3,0.3,0.5,0.5,0.8c0.2,0.2,0.4,0.4,0.7,0.5
		c0.3,0.1,0.6,0.2,0.9,0.2c0.3,0,0.7-0.1,1-0.2c0.3-0.1,0.5-0.3,0.7-0.5c0.2-0.2,0.4-0.5,0.5-0.7s0.2-0.6,0.2-0.9
		c0-0.3,0-0.6-0.2-0.9C43.8,42.8,43.6,42.6,43.4,42.3z"/>
	<path class="st8" d="M14.9,33.3c0.1,6.8,1.1,13.6,3,20.2l143.6,0.9c2-6.6,3.1-13.4,3.3-20.2L14.9,33.3z M37.3,46
		c-0.1,0.2-0.3,0.4-0.5,0.6c-0.2,0.1-0.4,0.3-0.7,0.3S35.7,47,35.4,47c-0.5,0-1-0.1-1.4-0.3c-0.4-0.2-0.7-0.5-1-0.9l0.7-0.4
		c0.2,0.3,0.4,0.5,0.7,0.7c0.3,0.2,0.6,0.2,1,0.2c0.2,0,0.3,0,0.5-0.1c0.2,0,0.3-0.1,0.4-0.2c0.1-0.1,0.2-0.2,0.3-0.3
		s0.1-0.3,0.1-0.4c0-0.3-0.1-0.5-0.3-0.6c-0.2-0.1-0.4-0.2-0.6-0.3c-0.2-0.1-0.5-0.1-0.8-0.2c-0.3-0.1-0.6-0.1-0.8-0.3
		c-0.2-0.1-0.5-0.3-0.6-0.5c-0.2-0.2-0.3-0.5-0.3-0.9c0-0.3,0.1-0.5,0.2-0.7c0.1-0.2,0.3-0.4,0.5-0.5c0.2-0.1,0.4-0.2,0.6-0.3
		c0.2-0.1,0.5-0.1,0.7-0.1c0.5,0,0.9,0.1,1.2,0.3c0.3,0.2,0.6,0.5,0.8,0.8l-0.7,0.4c-0.1-0.3-0.3-0.5-0.5-0.6
		c-0.2-0.1-0.5-0.2-0.8-0.2c-0.1,0-0.3,0-0.4,0.1c-0.1,0-0.3,0.1-0.4,0.2c-0.1,0.1-0.2,0.2-0.3,0.3c-0.1,0.1-0.1,0.2-0.1,0.4
		c0,0.3,0.1,0.5,0.3,0.6c0.2,0.1,0.4,0.2,0.6,0.3c0.2,0.1,0.5,0.1,0.8,0.2c0.3,0.1,0.6,0.1,0.8,0.2c0.2,0.1,0.5,0.3,0.6,0.5
		c0.2,0.2,0.3,0.5,0.3,0.9C37.5,45.5,37.4,45.8,37.3,46z M44.6,45.2c-0.2,0.4-0.4,0.7-0.6,1c-0.3,0.3-0.6,0.5-1,0.6
		C42.6,47,42.2,47,41.7,47c-0.4,0-0.8-0.1-1.2-0.2c-0.4-0.2-0.7-0.4-1-0.6c-0.3-0.3-0.5-0.6-0.6-1c-0.1-0.4-0.2-0.8-0.2-1.2
		c0-0.4,0.1-0.8,0.2-1.2c0.2-0.4,0.4-0.7,0.6-1c0.3-0.3,0.6-0.5,1-0.6c0.4-0.1,0.8-0.2,1.2-0.2c0.4,0,0.8,0.1,1.2,0.2
		c0.4,0.2,0.7,0.4,1,0.6c0.3,0.3,0.5,0.6,0.6,1c0.1,0.4,0.2,0.8,0.2,1.2C44.8,44.5,44.7,44.9,44.6,45.2z M47.3,46.9l-0.7,0l0.1-9.4
		l0.7,0L47.3,46.9z M53.7,47c0-0.2,0-0.4,0-0.6c0-0.2,0-0.3,0-0.4l0,0c-0.2,0.3-0.4,0.6-0.8,0.8s-0.8,0.3-1.2,0.3
		c-0.5,0-0.8-0.1-1.1-0.2c-0.3-0.1-0.5-0.3-0.7-0.6c-0.2-0.2-0.3-0.5-0.3-0.8c-0.1-0.3-0.1-0.6-0.1-0.9l0-3.4l0.7,0l0,3.4
		c0,0.2,0,0.5,0.1,0.7c0,0.2,0.1,0.4,0.2,0.6c0.1,0.2,0.2,0.3,0.4,0.4c0.2,0.1,0.4,0.2,0.7,0.2c0.3,0,0.5,0,0.8-0.1
		c0.2-0.1,0.5-0.2,0.6-0.4c0.2-0.2,0.3-0.4,0.4-0.7c0.1-0.3,0.2-0.6,0.2-1l0-2.9l0.7,0l0,4.1c0,0.1,0,0.2,0,0.4c0,0.2,0,0.3,0,0.5
		c0,0.2,0,0.3,0,0.4c0,0.1,0,0.2,0,0.3L53.7,47z M58.8,47.1c-0.2,0-0.3,0.1-0.5,0.1c-0.3,0-0.5,0-0.7-0.1c-0.2-0.1-0.3-0.2-0.5-0.3
		c-0.1-0.1-0.2-0.3-0.3-0.5c-0.1-0.2-0.1-0.4-0.1-0.6l0-3.8l-1.2,0l0-0.7l1.2,0l0-1.7l0.7,0l0,1.7l1.6,0l0,0.7l-1.6,0l0,3.8
		c0,0.3,0.1,0.5,0.2,0.6c0.1,0.1,0.3,0.2,0.6,0.2c0.1,0,0.3,0,0.4-0.1c0.1,0,0.3-0.1,0.4-0.1l0.1,0.7C59.2,47,59,47,58.8,47.1z
		 M61.5,47l-0.7,0l0-5.8l0.7,0L61.5,47z M61.5,39.3c-0.1,0.1-0.2,0.2-0.4,0.2c-0.2,0-0.3-0.1-0.4-0.2c-0.1-0.1-0.2-0.2-0.2-0.4
		c0-0.2,0.1-0.3,0.2-0.4c0.1-0.1,0.2-0.2,0.4-0.2c0.2,0,0.3,0.1,0.4,0.2c0.1,0.1,0.2,0.2,0.2,0.4C61.7,39.1,61.6,39.2,61.5,39.3z
		 M69.1,45.4c-0.2,0.4-0.4,0.7-0.6,1c-0.3,0.3-0.6,0.5-1,0.6c-0.4,0.1-0.8,0.2-1.2,0.2c-0.4,0-0.8-0.1-1.2-0.2
		c-0.4-0.2-0.7-0.4-1-0.6c-0.3-0.3-0.5-0.6-0.6-1c-0.1-0.4-0.2-0.8-0.2-1.2c0-0.4,0.1-0.8,0.2-1.2c0.2-0.4,0.4-0.7,0.6-1
		c0.3-0.3,0.6-0.5,1-0.6c0.4-0.1,0.8-0.2,1.2-0.2c0.4,0,0.8,0.1,1.2,0.2c0.4,0.2,0.7,0.4,1,0.6c0.3,0.3,0.5,0.6,0.6,1
		c0.1,0.4,0.2,0.8,0.2,1.2C69.3,44.6,69.3,45,69.1,45.4z M75.9,47.1l-0.7,0l0-3.4c0-0.2,0-0.5-0.1-0.7c0-0.2-0.1-0.4-0.2-0.6
		c-0.1-0.2-0.2-0.3-0.4-0.4c-0.2-0.1-0.4-0.2-0.7-0.2c-0.3,0-0.5,0-0.8,0.1c-0.2,0.1-0.5,0.2-0.6,0.4s-0.3,0.4-0.4,0.7
		c-0.1,0.3-0.2,0.6-0.2,1l0,2.9l-0.7,0l0-4.1c0-0.1,0-0.2,0-0.4c0-0.2,0-0.3,0-0.5c0-0.2,0-0.3,0-0.4c0-0.1,0-0.2,0-0.3l0.7,0
		c0,0.2,0,0.4,0,0.6c0,0.2,0,0.3,0,0.4l0,0c0.2-0.3,0.4-0.6,0.8-0.8c0.4-0.2,0.8-0.3,1.2-0.3c0.4,0,0.8,0.1,1.1,0.2
		c0.3,0.1,0.5,0.3,0.7,0.6c0.2,0.2,0.3,0.5,0.3,0.8c0.1,0.3,0.1,0.6,0.1,0.9L75.9,47.1z M83.6,47.2c-0.2,0-0.3,0.1-0.5,0.1
		c-0.3,0-0.5,0-0.7-0.1S82.1,47,82,46.8c-0.1-0.1-0.2-0.3-0.3-0.5c-0.1-0.2-0.1-0.4-0.1-0.6l0-3.8l-1.2,0l0-0.7l1.2,0l0-1.7l0.7,0
		l0,1.7l1.6,0l0,0.7l-1.6,0l0,3.8c0,0.3,0.1,0.5,0.2,0.6c0.1,0.1,0.3,0.2,0.6,0.2c0.1,0,0.3,0,0.4-0.1c0.1,0,0.3-0.1,0.4-0.1
		l0.1,0.7C83.9,47.1,83.8,47.2,83.6,47.2z M90.9,45.5c-0.2,0.4-0.4,0.7-0.6,1c-0.3,0.3-0.6,0.5-1,0.6c-0.4,0.1-0.8,0.2-1.2,0.2
		c-0.4,0-0.8-0.1-1.2-0.2c-0.4-0.2-0.7-0.4-1-0.6c-0.3-0.3-0.5-0.6-0.6-1c-0.1-0.4-0.2-0.8-0.2-1.2c0-0.4,0.1-0.8,0.2-1.2
		c0.2-0.4,0.4-0.7,0.6-1c0.3-0.3,0.6-0.5,1-0.6c0.4-0.1,0.8-0.2,1.2-0.2c0.4,0,0.8,0.1,1.2,0.2c0.4,0.2,0.7,0.4,1,0.6
		c0.3,0.3,0.5,0.6,0.6,1c0.1,0.4,0.2,0.8,0.2,1.2C91.1,44.7,91,45.1,90.9,45.5z M97.6,49c-0.1,0.4-0.3,0.7-0.6,0.9
		c-0.3,0.2-0.6,0.3-1,0.3c-0.1,0-0.3,0-0.4,0c-0.1,0-0.2,0-0.4-0.1l0.1-0.7c0.1,0,0.2,0.1,0.3,0.1c0.1,0,0.2,0,0.3,0
		c0.1,0,0.3,0,0.4-0.1c0.1-0.1,0.2-0.1,0.3-0.2c0.1-0.1,0.1-0.2,0.2-0.3s0.1-0.2,0.1-0.3l0.5-1.3l-2.3-5.8l0.8,0l1.9,4.9l1.9-4.9
		l0.8,0L97.6,49z M107.4,45.6c-0.2,0.4-0.4,0.7-0.6,1c-0.3,0.3-0.6,0.5-1,0.6c-0.4,0.1-0.8,0.2-1.2,0.2s-0.8-0.1-1.2-0.2
		c-0.4-0.2-0.7-0.4-1-0.6c-0.3-0.3-0.5-0.6-0.6-1c-0.1-0.4-0.2-0.8-0.2-1.2c0-0.4,0.1-0.8,0.2-1.2c0.2-0.4,0.4-0.7,0.6-1
		c0.3-0.3,0.6-0.5,1-0.6c0.4-0.1,0.8-0.2,1.2-0.2c0.4,0,0.8,0.1,1.2,0.2c0.4,0.2,0.7,0.4,1,0.6c0.3,0.3,0.5,0.6,0.6,1
		c0.1,0.4,0.2,0.8,0.2,1.2C107.6,44.8,107.5,45.2,107.4,45.6z M113.4,47.3c0-0.2,0-0.4,0-0.6c0-0.2,0-0.3,0-0.4l0,0
		c-0.2,0.3-0.4,0.6-0.8,0.8c-0.4,0.2-0.8,0.3-1.2,0.3c-0.5,0-0.8-0.1-1.1-0.2c-0.3-0.1-0.5-0.3-0.7-0.6c-0.2-0.2-0.3-0.5-0.3-0.8
		c-0.1-0.3-0.1-0.6-0.1-0.9l0-3.4l0.7,0l0,3.4c0,0.2,0,0.5,0.1,0.7c0,0.2,0.1,0.4,0.2,0.6c0.1,0.2,0.2,0.3,0.4,0.4s0.4,0.2,0.7,0.2
		c0.3,0,0.5,0,0.8-0.1c0.2-0.1,0.5-0.2,0.6-0.4c0.2-0.2,0.3-0.4,0.4-0.7c0.1-0.3,0.2-0.6,0.2-1l0-2.9l0.7,0l0,4.1c0,0.1,0,0.2,0,0.4
		c0,0.2,0,0.3,0,0.5c0,0.2,0,0.3,0,0.4c0,0.1,0,0.2,0,0.3L113.4,47.3z M119.1,42.2c-0.1,0-0.2-0.1-0.3-0.1c-0.3,0-0.6,0-0.8,0.2
		c-0.2,0.1-0.4,0.2-0.6,0.4c-0.2,0.2-0.3,0.4-0.3,0.6c-0.1,0.2-0.1,0.5-0.1,0.8l0,3.1l-0.7,0l0-4.1c0-0.1,0-0.2,0-0.4
		c0-0.2,0-0.3,0-0.5c0-0.2,0-0.3,0-0.4c0-0.1,0-0.2,0-0.3l0.7,0c0,0.2,0,0.4,0,0.6c0,0.2,0,0.3,0,0.4c0.2-0.3,0.4-0.6,0.7-0.8
		c0.3-0.2,0.7-0.3,1.1-0.3c0.1,0,0.1,0,0.2,0c0.1,0,0.1,0,0.2,0L119.1,42.2z M126.5,38.6c-0.2-0.1-0.4-0.1-0.7-0.1
		c-0.7,0-1,0.5-1,1.5l0,1.6l1.3,0l0,0.7l-1.3,0l0,5.1l-0.7,0l0-5.1l-1.2,0l0-0.7l1.2,0l0-1.9c0-0.4,0.1-0.7,0.2-0.9
		c0.1-0.2,0.3-0.4,0.4-0.6c0.2-0.1,0.4-0.3,0.6-0.3c0.2-0.1,0.4-0.1,0.6-0.1c0.3,0,0.6,0.1,0.9,0.2L126.5,38.6z M131.2,47.4
		c0-0.3-0.1-0.6-0.1-0.9l0,0c-0.2,0.4-0.5,0.6-0.8,0.8c-0.3,0.2-0.7,0.3-1.2,0.3c-0.2,0-0.5,0-0.7-0.1s-0.5-0.2-0.6-0.3
		c-0.2-0.1-0.3-0.3-0.5-0.5c-0.1-0.2-0.2-0.5-0.2-0.8c0-0.4,0.1-0.8,0.3-1c0.2-0.3,0.5-0.4,0.8-0.6c0.3-0.1,0.7-0.2,1.1-0.2
		c0.4,0,0.7-0.1,1-0.1l0.9,0l0-0.3c0-0.5-0.1-0.9-0.5-1.1c-0.3-0.2-0.7-0.3-1.2-0.3c-0.7,0-1.3,0.2-1.8,0.6l-0.4-0.5
		c0.3-0.3,0.6-0.5,1-0.6c0.4-0.1,0.8-0.2,1.2-0.2c0.7,0,1.3,0.2,1.7,0.5c0.4,0.3,0.6,0.9,0.6,1.6l0,1.4c0,0.3,0,0.5,0,0.8
		c0,0.2,0,0.4,0,0.6c0,0.2,0,0.4,0,0.5c0,0.2,0,0.3,0.1,0.5L131.2,47.4z M136.7,42.3c-0.1,0-0.2-0.1-0.3-0.1c-0.3,0-0.6,0-0.8,0.2
		c-0.2,0.1-0.4,0.2-0.6,0.4c-0.2,0.2-0.3,0.4-0.3,0.6c-0.1,0.2-0.1,0.5-0.1,0.8l0,3.1l-0.7,0l0-4.1c0-0.1,0-0.2,0-0.4
		c0-0.2,0-0.3,0-0.5c0-0.2,0-0.3,0-0.4c0-0.1,0-0.2,0-0.3l0.7,0c0,0.2,0,0.4,0,0.6c0,0.2,0,0.3,0,0.4c0.2-0.3,0.4-0.6,0.7-0.8
		c0.3-0.2,0.7-0.3,1.1-0.3c0.1,0,0.1,0,0.2,0c0.1,0,0.1,0,0.2,0L136.7,42.3z M146.6,47.5l-0.7,0l0-3.4c0-0.2,0-0.5-0.1-0.7
		c0-0.2-0.1-0.4-0.2-0.6c-0.1-0.2-0.2-0.3-0.4-0.4c-0.2-0.1-0.4-0.2-0.7-0.2c-0.3,0-0.6,0.1-0.9,0.2c-0.2,0.1-0.4,0.3-0.5,0.5
		c-0.1,0.2-0.2,0.4-0.3,0.6c-0.1,0.2-0.1,0.5-0.1,0.7l0,3.2l-0.7,0l0-3.5c0-0.5-0.1-1-0.3-1.3c-0.2-0.3-0.5-0.5-0.9-0.5
		c-0.3,0-0.5,0-0.8,0.1c-0.2,0.1-0.5,0.2-0.6,0.4c-0.2,0.2-0.3,0.4-0.4,0.7s-0.2,0.6-0.2,1l0,2.9l-0.7,0l0-4.1c0-0.1,0-0.2,0-0.4
		c0-0.2,0-0.3,0-0.5c0-0.2,0-0.3,0-0.4c0-0.1,0-0.2,0-0.3l0.7,0c0,0.2,0,0.4,0,0.6c0,0.2,0,0.3,0,0.4l0,0c0.2-0.3,0.4-0.6,0.8-0.8
		c0.4-0.2,0.8-0.3,1.2-0.3c0.4,0,0.7,0.1,1,0.3c0.3,0.2,0.5,0.5,0.7,1c0.2-0.4,0.5-0.7,0.8-0.9c0.4-0.2,0.7-0.3,1.1-0.3
		c0.5,0,0.8,0.1,1.1,0.2c0.3,0.1,0.5,0.3,0.7,0.6c0.2,0.2,0.3,0.5,0.3,0.8c0.1,0.3,0.1,0.6,0.1,0.9L146.6,47.5z"/>
	<g>
		<path class="st0" d="M69.4,79.4c-0.1,0.2-0.2,0.4-0.2,0.6c0,0.5,0.5,1,1,1c0.3,0,0.5-0.1,0.7-0.3c0.1-0.1,0.3-0.1,0.4,0
			c0.1,0.1,0.2,0.2,0.1,0.3c0,0.1,0,0.2,0,0.3c0,0.5,0.5,1,1,1c0.4,0,0.7-0.2,0.9-0.5c0.1-0.1,0.2-0.2,0.3-0.1
			c0.1,0,0.2,0.2,0.2,0.3c0,0.5,0.5,0.9,1,0.9c0,0,0,0,0,0c0,0,0,0,0,0c0.6,0,1-0.4,1-0.9c0-0.1,0.1-0.3,0.2-0.3
			c0.1,0,0.3,0,0.3,0.1c0.2,0.3,0.5,0.5,0.9,0.5c0.6,0,1-0.4,1-1c0-0.1,0-0.2,0-0.3c0-0.1,0-0.3,0.1-0.3c0.1-0.1,0.3-0.1,0.4,0
			c0.2,0.2,0.5,0.3,0.7,0.3c0.6,0,1-0.4,1-1c0-0.2-0.1-0.4-0.2-0.6c-0.1-0.1-0.1-0.3,0-0.4c0.1-0.2,0.2-0.4,0.2-0.6c0-0.5-0.5-1-1-1
			c-0.3,0-0.5,0.1-0.7,0.3c-0.1,0.1-0.3,0.1-0.4,0c-0.1-0.1-0.2-0.2-0.1-0.3c0-0.1,0-0.2,0-0.3c0-0.5-0.5-1-1-1
			c-0.4,0-0.7,0.2-0.9,0.5c-0.1,0.1-0.2,0.2-0.3,0.1c-0.1,0-0.2-0.2-0.2-0.3c0-0.5-0.5-0.9-1-0.9c0,0,0,0,0,0c0,0,0,0,0,0
			c-0.6,0-1,0.4-1,0.9c0,0.1-0.1,0.3-0.2,0.3c-0.1,0-0.3,0-0.3-0.1c-0.2-0.3-0.5-0.5-0.9-0.5c-0.6,0-1,0.4-1,1c0,0.1,0,0.2,0,0.3
			c0,0.1,0,0.3-0.1,0.3c-0.1,0.1-0.3,0.1-0.4,0c-0.2-0.2-0.5-0.3-0.7-0.3c-0.6,0-1,0.4-1,1c0,0.2,0.1,0.4,0.2,0.6
			C69.5,79.2,69.5,79.3,69.4,79.4z"/>
		<path class="st0" d="M39.9,69.5c0,0.2,0.2,0.4,0.4,0.4c0.2,0,0.4-0.2,0.4-0.4c0-0.1,0-0.2-0.1-0.2c-0.1-0.1-0.1-0.1-0.1-0.1l0,0
			c0,0-0.1,0-0.1,0C40.1,69.2,39.9,69.3,39.9,69.5z"/>
		<path class="st0" d="M52.2,70c0.2,0,0.4-0.2,0.4-0.4c0-0.2-0.2-0.4-0.4-0.4c0,0-0.1,0-0.1,0c0,0,0,0,0,0c0,0-0.1,0-0.1,0.1
			c-0.1,0.1-0.1,0.1-0.1,0.2C51.9,69.8,52,70,52.2,70z"/>
		<path class="st0" d="M68.1,82.9c-3.1-1.2-5.6-3.2-6.3-3.9c-0.1,0.3,0.1,0.6,0.1,0.6c0,0,0,0,0,0c0.9,2,2.4,3.1,4.5,3.3
			C67,83,67.6,82.9,68.1,82.9z"/>
		<path class="st0" d="M59.1,66.6c0-0.4-0.5-0.6-0.5-0.6c-2.5-0.8-4.8,0.8-5.3,1.2c0,0,0,0,0,0c2.8-1.4,4.2-0.8,4.4-0.7
			c0.1,0,0.4,0.2,0.5,0.7c0,0.3-0.1,0.6-0.4,0.9c-0.1,0.1-0.6,0.6-2.1,0.6c-0.5,0-1.1-0.1-1.7-0.2c2.1,1.1,3.9,0,3.9,0c0,0,0,0,0,0
			C59.3,67.8,59.1,66.7,59.1,66.6C59.1,66.7,59.1,66.6,59.1,66.6z"/>
		<path class="st0" d="M57.3,67.8c0.1-0.1,0.2-0.3,0.2-0.4c0-0.1-0.2-0.2-0.2-0.2c-0.9-0.5-2.9,0.3-3.8,0.7
			C56.4,68.6,57.3,67.8,57.3,67.8z"/>
		<path class="st0" d="M80.3,86.2c-0.1,0.1-0.2,0.2-0.2,0.3c0,0.1,0,0.2,0,0.2c0.1,0.2,0.3,0.3,0.6,0.2c0,0,0,0,0,0
			c0-0.3,0-0.5,0-0.8C80.7,86,80.5,86.1,80.3,86.2z"/>
		<path class="st0" d="M78.4,93.4C78.4,93.4,78.4,93.4,78.4,93.4c0.2-0.5,0.6-1.2,1-2c0.7-1.5,1.1-2.8,1.2-3.9c-0.1,0-0.1,0-0.2,0
			c-0.3,0-0.5-0.1-0.7-0.3c0,0.1-0.1,0.2-0.1,0.4c0,0.1-0.2,0.2-0.3,0.2c0,0,0,0-0.1,0c-0.2,0-0.3-0.2-0.2-0.4
			c0.2-0.9,0.6-1.4,0.6-1.5c0,0,0,0,0.1-0.1c0.1-0.1,0.2-0.3,0.4-0.3c0.1-0.1,0.4-0.2,0.7-0.2c0,0,0,0,0,0c-0.1-1.4-0.4-2.3-0.4-2.3
			c0-0.1,0-0.2,0.1-0.3c0.1-0.1,0.2-0.1,0.3-0.1c0,0,0,0,0,0c0,0,0,0,0,0c3.1-0.9,5.8-2.9,6.9-3.8c-1.5,0.2-5.1,0.5-6.2,0.7
			c0.1,0.2,0.1,0.3,0.1,0.5c0,0.9-0.7,1.6-1.7,1.6c-0.2,0-0.4,0-0.6-0.1c-0.1,0.8-0.8,1.3-1.6,1.3c-0.4,0-0.7-0.1-1-0.3
			c-0.3,0.5-0.8,0.9-1.5,0.9c0,0,0,0,0,0c0,0,0,0,0,0c-0.7,0-1.2-0.4-1.5-0.9c-0.3,0.2-0.6,0.3-1,0.3c-0.8,0-1.5-0.6-1.6-1.4
			c-0.2,0.1-0.4,0.1-0.6,0.1c-0.9,0-1.6-0.7-1.6-1.6c0-0.2,0-0.3,0.1-0.5c-1.1-0.1-4.8-0.6-6.2-0.7c1.1,0.9,3.7,2.9,6.8,3.9
			c0,0,0,0,0,0c0,0,0,0,0,0c0.1,0,0.2,0,0.3,0.1c0.1,0.1,0.1,0.2,0,0.3c0,0-0.4,0.9-0.5,2.3c0,0,0,0,0,0c0.3,0,0.6,0.1,0.7,0.2
			c0.1,0.1,0.3,0.2,0.4,0.3c0,0,0,0,0.1,0.1c0,0,0.4,0.6,0.6,1.5c0,0.2-0.1,0.3-0.2,0.4c0,0,0,0-0.1,0c-0.1,0-0.3-0.1-0.3-0.2
			c0-0.1-0.1-0.3-0.1-0.4c-0.2,0.2-0.5,0.3-0.7,0.3c-0.1,0-0.1,0-0.2,0c0.1,1.1,0.5,2.4,1.2,3.9c0.4,0.8,0.7,1.5,0.9,2l0,0
			c0,0,0,0.1,0.1,0.1c0.7,1.6,0.7,1.7,0.7,1.8c0,0.1,0,0.1,0,0.2c0,0.2-0.1,0.5,0,0.9c0,0,0,0,0,0c0.6,0.8,1.7,1.9,2.4,1.9l0-1
			c0-0.2,0.1-0.3,0.3-0.3c0.2,0,0.3,0.1,0.3,0.3l0,1c0.8,0,2-1.3,2.4-1.8c0,0,0,0,0,0c0.1-0.4,0-0.8,0-0.9c0-0.1,0-0.1,0-0.2
			c0-0.1,0-0.2,0.8-1.8C78.4,93.5,78.4,93.4,78.4,93.4z M74.3,96.8c-0.1,0.1-0.1,0.1-0.2,0.1c-0.1,0-0.1,0-0.2-0.1l-0.8-0.6
			c-0.1-0.1-0.1-0.3,0-0.4c0.1-0.1,0.3-0.1,0.4,0l0.8,0.6C74.4,96.5,74.5,96.7,74.3,96.8z M76.7,96.2l-0.8,0.6
			c-0.1,0-0.1,0.1-0.2,0.1c-0.1,0-0.2,0-0.2-0.1c-0.1-0.1-0.1-0.3,0-0.4l0.8-0.6c0.1-0.1,0.3-0.1,0.4,0
			C76.8,95.9,76.8,96.1,76.7,96.2z"/>
		<path class="st0" d="M75.2,98.9c-0.1,0-0.2,0-0.3,0c-0.1,0-0.2,0-0.3,0c-0.6,0-1.2-0.4-1.7-0.8c0.2,0.2,0.7,1,1.6,1.4c0,0,0,0,0,0
			c0,0,0.3,0.1,0.6,0c0.8-0.3,1.5-1.1,1.7-1.4C76.4,98.6,75.8,98.9,75.2,98.9z"/>
		<path class="st0" d="M68.9,83.4c-0.6,0.1-1.7,0.3-2.8,0.1c0,0-0.1,0-0.1,0c-0.5,0-0.9,0.4-0.9,0.9c0,0.5,0.4,0.9,0.9,0.9
			c0.2,0,0.3,0.1,0.3,0.3c0,0.2-0.1,0.3-0.2,0.3c-0.4,0.1-0.7,0.5-0.7,0.9c0,0.5,0.4,0.9,0.9,0.9c0,0,0.1,0,0.1,0
			c0.1,0,0.3,0.1,0.3,0.2c0,0.1,0,0.3-0.2,0.4c-0.3,0.2-0.5,0.5-0.5,0.8c0,0.5,0.4,0.9,0.9,0.9c0.1,0,0.3,0,0.4-0.1
			c0.1-0.1,0.3,0,0.4,0.1c0.1,0.1,0.1,0.3,0,0.4c-0.2,0.2-0.3,0.4-0.3,0.7c0,0.5,0.4,0.9,0.9,0.9c0.3,0,0.5-0.1,0.7-0.3
			c0.1-0.1,0.3-0.1,0.4,0c0.1,0.1,0.2,0.3,0.1,0.4c-0.1,0.1-0.1,0.3-0.1,0.5c0,0.5,0.4,0.9,0.9,0.9c0.1,0,0.3,0,0.4-0.1
			c-0.3-0.6-0.6-1.2-0.8-1.8C68,87.6,68.6,84.6,68.9,83.4z"/>
		<path class="st0" d="M69.6,86.1C69.4,86,69.3,86,69.2,86c0,0.2,0,0.5,0,0.8c0,0,0,0,0,0c0.3,0.1,0.5,0,0.6-0.2c0,0,0-0.1,0-0.2
			C69.8,86.3,69.7,86.2,69.6,86.1z"/>
		<path class="st0" d="M46.2,80.8L46.2,80.8C46.2,80.8,46.2,80.8,46.2,80.8c-0.1,0-0.1,0-0.1,0l-0.1,0c-0.1,0-0.4,0-0.9,0.4
			c-0.1,0.1-0.2,0.2-0.3,0.2c0.1,0.1,0.4,0.2,0.7,0.2l0.5,0c0,0,0,0,0,0c0,0,0,0,0,0l0.5,0c0.4,0,0.6-0.1,0.7-0.2
			c-0.1-0.1-0.2-0.1-0.3-0.2C46.6,80.8,46.4,80.8,46.2,80.8z"/>
		<path class="st0" d="M38.7,59.4c-0.1-0.5-0.2-1-0.2-1.5c0,0,0-0.1,0-0.1c-0.1,0.1-0.3,0.6-0.4,1.8C38.2,59.6,38.4,59.7,38.7,59.4z
			"/>
		<path class="st0" d="M36.9,68.7c-1.5,0-2-0.5-2.1-0.6c-0.3-0.3-0.4-0.6-0.4-0.9c0.1-0.4,0.4-0.6,0.5-0.7c0.2-0.1,1.5-0.7,4.4,0.8
			c0,0,0,0,0,0c-0.5-0.4-2.8-2.1-5.3-1.3c0,0-0.5,0.2-0.6,0.6c0,0,0,0,0,0c0,0-0.2,1.1,1.3,1.9c0,0,0,0,0,0c0.1,0.1,1.9,1.2,3.9,0.1
			C37.9,68.6,37.4,68.7,36.9,68.7z"/>
		<path class="st0" d="M39.9,64.9c0.4,0.1,0.9-0.3,1.1-0.4c0.5-0.4,0.6-0.8,0.6-1c-0.5-0.3-2-1.4-2.7-3.4c-0.2,0.1-0.4,0.2-0.6,0.2
			c-0.1,0-0.2,0-0.3,0c0,0.1,0,0.1,0,0.2C38,60.4,38,63.4,39.9,64.9z"/>
		<path class="st0" d="M51.5,64.6c0.2,0.2,0.7,0.5,1.1,0.4c1.9-1.4,2-4.5,2-4.5c0-0.1,0-0.1,0-0.2c-0.1,0-0.2,0-0.3,0
			c-0.2,0-0.4-0.1-0.6-0.2c-0.8,2-2.3,3.1-2.7,3.4C51,63.7,51,64.2,51.5,64.6z"/>
		<path class="st0" d="M54.6,59.7c-0.1-1.3-0.3-1.7-0.4-1.8c0,0,0,0.1,0,0.1c0,0.6-0.1,1.1-0.2,1.5C54.1,59.8,54.4,59.7,54.6,59.7z"
			/>
		<path class="st0" d="M52.2,70.6c-0.3,0-0.5-0.1-0.7-0.3c0,0.1,0,0.2,0,0.3c0,0.2-0.1,0.3-0.2,0.4c0,0,0,0-0.1,0
			c-0.1,0-0.3-0.1-0.3-0.3c-0.2-0.8,0.2-1.4,0.6-1.7c0.2-0.2,0.4-0.3,0.7-0.3c0.2,0,0.3,0.1,0.5,0.1c0-1.4-0.2-2.6-0.2-3.2l0,0
			c-0.7,0-1.3-0.6-1.4-0.6c-0.7-0.6-0.8-1.2-0.8-1.5c-1.7-1.7-4-1.5-4-1.5c0,0,0,0-0.1,0c0,0,0,0-0.1,0c0,0-2.3-0.2-4,1.5
			c0,0.3-0.1,0.9-0.8,1.5c0,0-0.7,0.6-1.4,0.6l0,0c-0.1,0.6-0.2,1.8-0.3,3.2c0.1-0.1,0.3-0.1,0.5-0.1c0.3,0,0.5,0.1,0.7,0.3
			c0.4,0.3,0.7,0.9,0.6,1.7c0,0.1-0.2,0.2-0.3,0.2c0,0,0,0-0.1,0c-0.2,0-0.3-0.2-0.2-0.4c0-0.1,0-0.2,0-0.3
			c-0.2,0.2-0.4,0.3-0.7,0.3c-0.2,0-0.3,0-0.5-0.1c0,0.4,0.1,0.8,0.2,1.2c0,0,0.5,3.4,2.4,5.9c0.4-0.3,0.9-0.5,1.4-0.5
			c0.4,0,0.9,0.1,1.2,0.4c0.1,0.1,0.2,0.3,0.1,0.4c-0.1,0.1-0.3,0.2-0.4,0.1c-0.3-0.2-0.6-0.3-0.9-0.3c-0.5,0-0.9,0.2-1.2,0.6
			c-0.2,0.3-0.4,0.6-0.4,1c0,0.8,0.7,1.8,1.6,1.8c0,0,0,0,0.1,0c0,0,0.5,0.1,1.1-0.3c0.7-0.5,1.1-0.5,1.3-0.5l0,0c0,0,0,0,0,0
			c0,0,0,0,0,0l0,0c0.2,0,0.6,0,1.3,0.5c0.5,0.4,1,0.3,1,0.3c0,0,0,0,0.1,0c0.9,0,1.6-0.9,1.6-1.8c0-0.4-0.1-0.7-0.4-1
			c-0.3-0.4-0.7-0.6-1.2-0.6c-0.3,0-0.6,0.1-0.9,0.3c-0.1,0.1-0.3,0.1-0.4-0.1c-0.1-0.1-0.1-0.3,0.1-0.4c0.4-0.2,0.8-0.4,1.2-0.4
			c0.5,0,1,0.2,1.4,0.5c1.9-2.4,2.4-5.8,2.5-5.8c0.1-0.4,0.1-0.8,0.2-1.2C52.5,70.6,52.4,70.6,52.2,70.6z M43.9,80.2
			c-0.6,0-1-0.5-1-1c0-0.6,0.5-1,1-1s1,0.5,1,1C45,79.7,44.5,80.2,43.9,80.2z M48.4,78.1c0.6,0,1,0.5,1,1c0,0.6-0.5,1-1,1
			c-0.6,0-1-0.5-1-1C47.4,78.6,47.9,78.1,48.4,78.1z M45.1,75.7c-0.1,0.1-0.1,0.1-0.2,0.1c-0.1,0-0.2,0-0.2-0.1
			c-1.6-1.6-1.2-3.8-1.2-3.9c0-0.2,0.2-0.3,0.4-0.2c0.2,0,0.3,0.2,0.2,0.4c0,0-0.3,1.9,1.1,3.3C45.3,75.4,45.3,75.6,45.1,75.7z
			 M47.7,75.8c-0.1,0.1-0.1,0.1-0.2,0.1s-0.2,0-0.2-0.1c-0.1-0.1-0.1-0.3,0-0.4c1.4-1.4,1.1-3.3,1.1-3.3c0-0.2,0.1-0.3,0.3-0.4
			c0.2,0,0.3,0.1,0.4,0.3C49,72,49.3,74.1,47.7,75.8z M49.1,65.1c-0.5,0-0.9-0.4-0.9-1c0,0,0,0,0-0.1c0,0,0-0.1,0-0.1
			c0-0.1,0-0.2-0.1-0.3c0,0-0.1-0.1-0.2-0.1c-0.1,0-0.3,0.1-0.3,0.3c0,0,0,0,0,0c0,0.5-0.4,0.9-0.9,0.9c-0.2,0-0.4-0.1-0.6-0.3
			c-0.2,0.2-0.4,0.2-0.6,0.2c-0.5,0-0.9-0.4-0.9-0.9l0,0c0-0.2-0.1-0.3-0.3-0.3c-0.1,0-0.1,0.1-0.2,0.1c-0.1,0.1-0.1,0.2-0.1,0.3
			c0,0,0,0.1,0,0.1c0,0,0,0,0,0.1c0,0.5-0.4,1-0.9,1c-0.5,0-0.9-0.4-0.9-1c0-0.2,0.1-0.3,0.3-0.3c0.2,0,0.3,0.1,0.3,0.3
			c0,0.2,0.1,0.3,0.3,0.3c0.1,0,0.3-0.2,0.3-0.3c0,0,0,0,0-0.1c0,0,0,0,0,0c0-0.2,0-0.5,0.2-0.7c0.2-0.2,0.4-0.3,0.6-0.3
			c0.5,0,0.9,0.4,1,0.9c0,0,0,0,0,0c0,0,0,0,0,0c0,0.2,0.1,0.3,0.3,0.3c0.1,0,0.3-0.2,0.3-0.3c0-0.2,0.1-0.3,0.3-0.3c0,0,0,0,0,0
			c0,0,0,0,0,0c0.2,0,0.3,0.1,0.3,0.3c0,0.2,0.1,0.3,0.3,0.3c0.1,0,0.3-0.2,0.3-0.3c0,0,0,0,0,0c0,0,0,0,0,0c0.1-0.5,0.5-0.9,1-0.9
			c0.2,0,0.5,0.1,0.6,0.4c0.1,0.2,0.2,0.4,0.2,0.7c0,0,0,0,0,0c0,0,0,0,0,0.1c0,0.2,0.1,0.3,0.3,0.3c0.1,0,0.3-0.2,0.3-0.3
			c0-0.2,0.1-0.3,0.3-0.3c0.2,0,0.3,0.1,0.3,0.3C50,64.6,49.6,65.1,49.1,65.1z"/>
		<path class="st0" d="M35.2,67c0,0-0.1,0.1-0.2,0.2c0,0.1,0.1,0.3,0.2,0.4c0,0,0.9,0.8,3.8,0.1C38,67.3,36.1,66.5,35.2,67z"/>
		
			<ellipse transform="matrix(5.932622e-03 -1 1 5.932622e-03 -35.4693 122.5957)" class="st0" cx="43.9" cy="79.1" rx="0.4" ry="0.4"/>
		
			<ellipse transform="matrix(5.932622e-03 -1 1 5.932622e-03 -31.0288 127.116)" class="st0" cx="48.4" cy="79.2" rx="0.4" ry="0.4"/>
		<path class="st0" d="M81,83.4c0.3,1.2,0.9,4.2-1.1,8.2c-0.3,0.6-0.6,1.2-0.9,1.8c0.1,0.1,0.2,0.1,0.4,0.1c0.5,0,0.9-0.4,0.9-0.9
			c0-0.2,0-0.3-0.1-0.5c-0.1-0.1,0-0.3,0.1-0.4c0.1-0.1,0.3-0.1,0.4,0c0.2,0.2,0.4,0.3,0.7,0.3c0.5,0,0.9-0.4,0.9-0.9
			c0-0.2-0.1-0.5-0.3-0.7c-0.1-0.1-0.1-0.3,0-0.4c0.1-0.1,0.3-0.2,0.4-0.1c0.1,0.1,0.3,0.1,0.4,0.1c0.5,0,0.9-0.4,0.9-0.9
			c0-0.4-0.2-0.7-0.5-0.8c-0.1-0.1-0.2-0.2-0.2-0.4c0-0.1,0.2-0.2,0.3-0.2c0,0,0.1,0,0.1,0c0.5,0,0.9-0.4,0.9-0.9
			c0-0.4-0.3-0.8-0.7-0.9c-0.1,0-0.2-0.2-0.2-0.3c0-0.2,0.1-0.3,0.3-0.3c0.5,0,0.9-0.4,0.9-0.9c0-0.5-0.4-0.9-0.9-0.9
			c0,0-0.1,0-0.1,0C82.7,83.7,81.6,83.6,81,83.4z"/>
		<path class="st0" d="M141.9,71.1C141.9,71.1,142,71.1,141.9,71.1C142,71,142,71,141.9,71.1c0.1-0.3,0.1-0.5,0.1-0.7
			c-0.1,0-0.2,0-0.4,0.1c-0.1,0-0.2,0.2-0.2,0.3c0,0.1,0,0.2,0,0.2C141.5,71.1,141.7,71.2,141.9,71.1z"/>
		<path class="st0" d="M137.1,62.3c0-2.4-0.6-3.8-0.9-4c-0.3,0.3-1,1.8-1,4c0,2.1,0.6,3.6,0.9,3.9C136.5,66,137.1,64.6,137.1,62.3z"
			/>
		<path class="st0" d="M130.7,70.4c-0.2-0.1-0.3-0.1-0.3-0.1c0,0.2,0,0.4,0,0.7c0,0,0,0,0,0c0,0,0,0,0,0c0.2,0.1,0.4,0,0.5-0.2
			c0,0,0-0.1,0-0.2C130.9,70.5,130.8,70.4,130.7,70.4z"/>
		<path class="st0" d="M81.9,83c0.5,0.1,1.1,0.1,1.7,0c2.1-0.2,3.7-1.3,4.6-3.2c0,0,0,0,0,0c0,0,0.2-0.3,0.1-0.6
			C87.5,79.8,85.1,81.8,81.9,83z"/>
		<path class="st0" d="M105.5,90.1C105.5,90.1,105.5,90.1,105.5,90.1c-2,0-3.6,1.7-3.6,3.7c0,0.4,0.1,0.7,0.3,0.8
			c0.5,0.4,1.6,0.3,2.4,0.2c0.2,0,0.3,0,0.4,0l0-0.4c0-0.2,0.2-0.4,0.4-0.4c0,0,0,0,0,0c0.2,0,0.4,0.2,0.4,0.4l0,0.4
			c0.1,0,0.3,0,0.4,0c0.8,0.1,1.9,0.2,2.4-0.3c0.2-0.2,0.3-0.5,0.3-0.8C109.1,91.8,107.5,90.1,105.5,90.1z M104.5,93.4
			c-0.1,0.1-0.3,0.2-0.6,0.2c0,0,0,0,0,0c-0.2,0-0.4-0.1-0.6-0.2c-0.1-0.1-0.2-0.3-0.2-0.6c0-0.2,0.1-0.4,0.2-0.6
			c0.1-0.1,0.3-0.2,0.6-0.2c0.2,0,0.4,0.1,0.6,0.2c0.1,0.1,0.2,0.3,0.2,0.6C104.7,93.1,104.6,93.2,104.5,93.4z M107.6,93.4
			c-0.1,0.1-0.3,0.2-0.6,0.2c0,0,0,0,0,0c-0.4,0-0.8-0.4-0.8-0.8c0-0.2,0.1-0.4,0.2-0.6c0.1-0.1,0.3-0.2,0.6-0.2
			c0.2,0,0.4,0.1,0.6,0.2c0.1,0.1,0.2,0.3,0.2,0.6C107.9,93.1,107.8,93.3,107.6,93.4z"/>
		<path class="st0" d="M137.3,74.5l-0.6,1c0.2,0.3,0.4,0.8,0.3,2.1c-0.1,1.3,0.2,1.6,0.2,1.6c0,0,0,0,0,0c0.5,0.7,1.2,0.3,1.2,0.3
			c0.9-0.5,0.6-1.9,0.6-1.9C138.9,76.1,137.8,74.9,137.3,74.5z"/>
		<path class="st0" d="M136.4,72.4l0,2.6l1.1-1.9c-0.1-0.2-0.4-0.6-0.8-1.1c-0.1-0.2-0.2-0.3-0.3-0.4L136.4,72.4z"/>
		<path class="st0" d="M142.4,73.5c-0.2-0.7-0.2-1.3-0.3-1.9c-0.1,0-0.2,0.1-0.3,0.1c-0.2,0-0.5-0.1-0.7-0.3c0,0.1-0.1,0.2-0.1,0.3
			c0,0.1-0.1,0.2-0.3,0.2c0,0,0,0-0.1,0c-0.2,0-0.2-0.2-0.2-0.3c0.2-0.8,0.5-1.3,0.5-1.3c0,0,0,0,0.1,0c0.1-0.1,0.2-0.2,0.3-0.3
			c0.1,0,0.3-0.2,0.6-0.1c0-0.2,0-0.4,0-0.4c0-2.7-1.8-5-4.4-5.6c-0.2,1.6-0.7,2.9-1.4,2.9c-0.7,0-1.2-1.4-1.4-2.9
			c-2.6,0.6-4.4,2.9-4.4,5.6c0,0,0,0.2,0,0.4c0.3,0,0.5,0.1,0.6,0.2c0.1,0.1,0.2,0.2,0.3,0.3c0,0,0,0,0.1,0.1c0,0,0.3,0.5,0.5,1.3
			c0,0.2-0.1,0.3-0.2,0.3c0,0,0,0-0.1,0c-0.1,0-0.2-0.1-0.3-0.2c0-0.1-0.1-0.2-0.1-0.3c-0.2,0.2-0.4,0.3-0.7,0.3
			c-0.1,0-0.2,0-0.3-0.1c-0.1,0.6-0.2,1.2-0.3,1.9c-0.6,2.5-1.7,4.1-3.3,4.8c0.7,0.7,2.6,2.2,5.3,3.1c4.5,1.5,9.1,0.4,13.5-3.1
			C144,77.6,142.9,76,142.4,73.5z M138.8,80.1c-0.2,0.1-0.4,0.2-0.7,0.2c-0.4,0-0.8-0.1-1.2-0.6c-0.1-0.1-0.5-0.7-0.4-2.1
			c0.1-0.8,0-1.3-0.1-1.5l-0.1,0.1c-0.1,0.1-0.1,0.1-0.2,0.1c0,0,0,0,0,0c0,0,0,0,0,0c-0.1,0-0.2-0.1-0.2-0.1l-0.1-0.1
			c-0.1,0.2-0.2,0.7-0.1,1.5c0.1,1.4-0.3,2-0.4,2.1c-0.3,0.5-0.8,0.6-1.2,0.6c-0.3,0-0.6-0.1-0.7-0.2c-1.3-0.7-0.9-2.4-0.9-2.5
			c0.3-1.8,1.7-3.1,2.1-3.5l-0.5-0.8c0-0.1,0-0.2,0-0.3c0,0,0.3-0.5,0.9-1.2c0.6-0.7,0.9-0.8,1-0.8c0,0,0,0,0,0h0c0,0,0,0,0,0
			c0,0,0,0,0,0h0c0,0,0,0,0,0c0.1,0,0.5,0.1,1,0.8c0.6,0.7,0.9,1.2,0.9,1.2c0.1,0.1,0.1,0.2,0,0.3l-0.5,0.8c0.4,0.4,1.8,1.7,2.1,3.6
			C139.7,77.7,140.1,79.4,138.8,80.1z"/>
		<path class="st0" d="M135.9,72.3l0-0.7c-0.1,0.1-0.2,0.2-0.3,0.4c-0.4,0.5-0.6,0.9-0.8,1l1.1,2L135.9,72.3z"/>
		<path class="st0" d="M133.1,77.6c0,0-0.3,1.4,0.6,1.9c0.1,0,0.8,0.4,1.2-0.3c0,0,0,0,0,0c0,0,0.3-0.4,0.2-1.6
			c-0.1-1.3,0.1-1.9,0.3-2.1l-0.5-1C134.4,74.9,133.3,76.1,133.1,77.6z"/>
		<path class="st0" d="M113.4,78.8c-2.4,1.2-2.4,2.8-2.4,3.6c0,0.1,0,0.1,0,0.2c0,0.2-0.2,0.4-0.4,0.4c0,0,0,0,0,0
			c-0.2,0-0.4-0.2-0.4-0.4c0,0,0-0.1,0-0.2c0-0.3,0-0.8,0.1-1.4c-0.4,0.3-0.8,0.5-1.4,0.7c-0.1,0-0.2,0-0.2,0
			c-0.6-0.2-1.8-0.3-3.2-0.3c-1.4,0-2.6,0.1-3.2,0.3c-0.1,0-0.2,0-0.2,0c-0.5-0.2-1-0.4-1.4-0.7c0.1,0.6,0.1,1.1,0.1,1.4
			c0,0.1,0,0.1,0,0.2c0,0.2-0.2,0.4-0.4,0.4l0,0c-0.2,0-0.4-0.2-0.4-0.4c0-0.1,0-0.1,0-0.2c0-0.8,0.1-2.4-2.3-3.6c0,0,0,0,0,0
			c-0.9-0.5-2.1-0.9-3.9-1.2c0.3,1.4,1.4,5.2,3,5.8c0.4,0.2,0.9,0.1,1.4-0.3c0.5-0.4,0.9-0.5,1.2-0.4c0.2,0.1,0.4,0.2,0.5,0.6
			c0,0,0,0.1,0,0.1c0,0.8-0.4,1.7-0.9,2.7c0.1,0,0.2,0.1,0.2,0.1c0.1,0.1,0.3,0.2,0.4,0.3c0,0,0,0,0.1,0.1c0,0,0.4,0.6,0.6,1.5
			c0,0.2-0.1,0.3-0.2,0.4c0,0,0,0-0.1,0c-0.1,0-0.3-0.1-0.3-0.2c0-0.1-0.1-0.3-0.1-0.4c-0.2,0.2-0.5,0.3-0.7,0.3
			c-0.2,0-0.3,0-0.5-0.1c0,0-0.1,0-0.1-0.1l0,0c-0.6,1.4-1.2,3-1.2,4.9c0,2.1,0.8,3.8,2.5,4.9c1.4,0.9,3.4,1.5,5.6,1.5l0.1,0
			c2.2,0,4.2-0.5,5.7-1.4c1.7-1.1,2.6-2.8,2.6-4.9c0-1.9-0.5-3.5-1.1-4.9c0,0,0,0,0,0c0,0-0.1,0-0.1,0.1c-0.2,0.1-0.3,0.1-0.5,0.1
			c-0.3,0-0.5-0.1-0.7-0.3c0,0.1-0.1,0.2-0.1,0.4c0,0.1-0.2,0.2-0.3,0.2c0,0,0,0-0.1,0c-0.2,0-0.3-0.2-0.2-0.4
			c0.2-0.9,0.6-1.4,0.6-1.5c0,0,0,0,0.1-0.1c0.1-0.1,0.2-0.3,0.4-0.3c0,0,0.1-0.1,0.2-0.1c-0.5-1-0.8-1.9-0.8-2.7c0,0,0-0.1,0-0.1
			c0.1-0.4,0.4-0.6,0.6-0.6c0.3-0.1,0.7,0,1.2,0.4c0.5,0.4,1,0.5,1.4,0.3c0.8-0.3,1.6-1.4,2.3-3.3c0.4-1,0.7-1.9,0.8-2.5
			C115.5,78,114.3,78.4,113.4,78.8C113.4,78.8,113.4,78.8,113.4,78.8z M109.3,95.2c-0.1,0.1-0.2,0.1-0.3,0.2
			c-0.2,0.8-0.7,1.5-1.3,2.1c-0.7,0.6-1.4,0.9-2.2,0.9c0,0,0,0,0,0c-1.5,0-3-1.3-3.5-2.9c-0.1-0.1-0.2-0.1-0.3-0.2
			c-0.4-0.3-0.6-0.8-0.6-1.4c0-2.5,1.9-4.5,4.3-4.5c2.4,0,4.3,2,4.3,4.5C109.9,94.4,109.7,94.9,109.3,95.2z"/>
		<path class="st0" d="M18.5,55.2C22,66.1,28,76.3,36.6,85c29.1,29.5,76.6,29.7,106,0.6c8.7-8.6,14.8-18.8,18.5-29.7L18.5,55.2z
			 M58.1,69.1c-0.1,0.1-1.1,0.6-2.4,0.6c-0.7,0-1.5-0.2-2.4-0.7c0,1,0,2-0.2,2.8c0,0.1-0.6,3.6-2.7,6.2c0.2,0.4,0.3,0.8,0.3,1.2
			c0,1.3-1,2.4-2.2,2.4c0,0-0.1,0-0.2,0c-0.1,0-0.2,0-0.3,0c-0.2,0.2-0.6,0.6-1.4,0.6l-0.5,0c0,0,0,0,0,0c0,0,0,0,0,0l-0.5,0
			c-0.8,0-1.2-0.4-1.4-0.7c-0.1,0-0.2,0-0.3,0c-0.1,0-0.2,0-0.2,0c-1.2,0-2.2-1.1-2.2-2.4c0-0.4,0.1-0.8,0.4-1.2
			c-2-2.6-2.6-6.1-2.6-6.2c-0.2-0.9-0.2-1.9-0.2-2.8c-0.9,0.5-1.7,0.7-2.4,0.7c-1.3,0-2.2-0.5-2.4-0.6c-1.5-0.8-1.7-2-1.6-2.6
			c0.1-0.8,1-1.1,1-1.1c2.4-0.8,4.6,0.5,5.5,1.2c0.1-0.5,0.1-0.9,0.1-1.1c-2.1-1.7-2.1-4.8-2.1-4.9c0.1-1.9,0.3-2.9,0.8-3.2
			c0.1-0.1,0.3-0.1,0.4-0.1c0.3,0,0.5,0.4,0.5,0.7c0,0,0,0,0,0c0.1,3.1,2.1,4.7,2.8,5.1c1.9-1.8,4.3-1.6,4.4-1.6l0,0
			c0.1,0,2.5-0.2,4.4,1.6c0.6-0.4,2.7-2,2.8-5.1c0,0,0,0,0,0c0-0.3,0.2-0.7,0.5-0.7c0.1,0,0.3,0,0.4,0.1c0.5,0.3,0.7,1.4,0.8,3.2
			c0,0.1-0.1,3.3-2.2,4.9c0,0.2,0.1,0.6,0.1,1.2c0.9-0.7,3.1-1.9,5.6-1.1c0,0,0.9,0.3,1,1.1C59.8,67.1,59.6,68.3,58.1,69.1z
			 M88.8,80c-0.9,2-2.4,2.9-3.8,3.3c0.3,0.3,0.5,0.7,0.5,1.2c0,0.6-0.3,1.1-0.8,1.3c0.3,0.3,0.4,0.7,0.4,1.1c0,0.7-0.4,1.2-1,1.4
			c0.2,0.3,0.3,0.6,0.3,0.9c0,0.8-0.7,1.5-1.5,1.5c0,0.1,0.1,0.3,0.1,0.4c0,0.8-0.7,1.5-1.5,1.5c-0.2,0-0.3,0-0.4-0.1
			c0,0.8-0.7,1.5-1.5,1.5c-0.2,0-0.4-0.1-0.6-0.1c-0.3,0.6-0.5,1.1-0.6,1.3c0,0,0,0,0,0.1c0.1,0.4,0.3,1.5-0.8,3
			c0,0.1-0.9,1.3-2,1.7c-0.2,0.1-0.4,0.1-0.6,0.1c-0.3,0-0.5-0.1-0.6-0.1c-1.2-0.6-1.9-1.7-1.9-1.7c-1-1.5-0.8-2.6-0.8-3
			c0,0,0,0,0-0.1c0-0.2-0.3-0.7-0.6-1.3c-0.2,0.1-0.4,0.1-0.6,0.1c-0.8,0-1.5-0.7-1.5-1.5c-0.1,0-0.3,0.1-0.5,0.1
			c-0.8,0-1.5-0.7-1.5-1.5c0-0.1,0-0.3,0.1-0.4c-0.8,0-1.5-0.7-1.5-1.5c0-0.3,0.1-0.6,0.3-0.9c-0.6-0.2-1-0.8-1-1.4
			c0-0.4,0.2-0.8,0.5-1.1c-0.5-0.3-0.8-0.8-0.8-1.3c0-0.5,0.2-0.9,0.6-1.2c-1.4-0.4-2.9-1.4-3.8-3.4c-0.1-0.1-0.3-0.6-0.1-1.1
			c0.1-0.4,0.4-0.7,0.8-0.6c0.3,0,5.2,0.6,6.7,0.8c0-0.1-0.1-0.3-0.1-0.4c0-0.9,0.7-1.6,1.7-1.6c0.2,0,0.4,0,0.6,0.1
			c0.1-0.8,0.8-1.3,1.6-1.3c0.4,0,0.7,0.1,1,0.3c0.3-0.5,0.8-0.9,1.5-0.9c0,0,0,0,0,0c0,0,0,0,0,0c0.7,0,1.2,0.4,1.5,0.9
			c0.3-0.2,0.6-0.3,1-0.3c0.8,0,1.5,0.6,1.6,1.4c0.2-0.1,0.4-0.1,0.6-0.1c0.9,0,1.6,0.7,1.6,1.6c0,0.1,0,0.3-0.1,0.4
			c1.5-0.2,6.4-0.7,6.7-0.7c0.4-0.1,0.7,0.3,0.8,0.6C89.1,79.5,88.8,79.9,88.8,80z M118,78.1c-0.1,0.4-0.3,1.1-0.6,1.9
			c-0.7,1.9-1.5,3.2-2.3,3.9c-0.9,0.7-1.8,0.6-2.8-0.1c-0.3-0.2-0.4-0.3-0.5-0.3c0,0,0,0,0,0c0,0.7,0.5,1.7,1,2.8
			c0.8,1.8,1.8,3.9,1.8,6.6c0,2.4-1,4.3-3,5.5c-1.6,1-3.7,1.6-6.1,1.6l-0.1,0c0,0,0,0,0,0c-2.4,0-4.5-0.6-6-1.6
			c-1.9-1.3-2.9-3.2-2.9-5.6c0-2.7,1.1-4.8,1.9-6.6c0.5-1.1,1-2,1-2.8c0,0,0,0,0,0c0,0-0.2,0-0.5,0.3c-0.9,0.7-1.9,0.8-2.8,0.1
			c-0.8-0.7-1.6-2-2.3-3.9c-0.3-0.8-0.4-1.4-0.6-1.9C93,77,93,77,93,76.9c0.1-0.2,0.2-0.3,0.4-0.2c2.2,0.4,3.7,0.8,4.7,1.4
			c0,0,0,0,0,0c0,0,0,0,0.1,0c1,0.5,1.6,1.1,2.2,1.6c0.6,0.5,1.1,1,1.9,1.2c0.7-0.2,1.9-0.3,3.3-0.3c1.4,0,2.6,0.1,3.3,0.3
			c0.8-0.3,1.3-0.7,1.9-1.2c0.6-0.5,1.2-1.1,2.2-1.6c0,0,0,0,0.1,0c0,0,0,0,0,0c1.1-0.5,2.5-1,4.7-1.3c0.2,0,0.4,0.1,0.4,0.2
			C118.2,77.2,118.3,77.2,118,78.1z M146.3,78.6C146.3,78.6,146.3,78.6,146.3,78.6c-0.2,0-0.3-0.1-0.4-0.1c-3.8,3.1-7.3,4-10.2,4
			c-1.5,0-2.9-0.3-4-0.7c-3.1-1-5.1-2.9-5.7-3.4c0,0-0.1,0-0.1,0c0,0,0,0-0.1,0c-0.1,0-0.2-0.1-0.3-0.2c0-0.2,0.1-0.3,0.2-0.3
			c4.1-0.8,4-8.5,4-8.6c0-3,2.1-5.5,4.9-6.1c0-0.3,0-0.6,0-0.9c0-2.1,0.6-4.4,1.5-4.4c0.2,0,0.6,0,1.1,1.3c0.3,0.9,0.4,2,0.4,3.1
			c0,0.3,0,0.6,0,0.9c2.9,0.7,4.9,3.2,4.9,6.2c0,0.1-0.3,7.7,3.9,8.6c0.2,0,0.2,0.2,0.2,0.3C146.6,78.5,146.5,78.6,146.3,78.6z"/>
		<path class="st0" d="M106.3,95.7c-0.3,0-0.6-0.1-0.8-0.1c-0.2,0-0.5,0-0.7,0.1c-0.4,0-0.8,0.1-1.3,0.1c-0.2,0-0.4,0-0.5,0
			c0.5,1.2,1.7,1.9,2.6,1.9c0,0,0,0,0,0c1,0,2-0.8,2.5-1.9C107.5,95.8,106.8,95.7,106.3,95.7z M105.9,96.8l-0.8,0c0,0,0,0,0,0
			c-0.2,0-0.4-0.2-0.4-0.4c0-0.2,0.2-0.4,0.4-0.4l0.8,0l0,0c0.2,0,0.4,0.2,0.4,0.4C106.3,96.6,106.1,96.8,105.9,96.8z"/>
		<path class="st0" d="M99.2,86.7c-0.1,0-0.1-0.1-0.2-0.1c-0.1,0.2-0.2,0.5-0.3,0.7c0,0,0.1,0,0.1,0c0,0,0,0,0.1,0
			c0.3,0.1,0.5,0,0.6-0.2c0,0,0-0.1,0-0.2C99.4,86.9,99.3,86.7,99.2,86.7z"/>
		<path class="st0" d="M112.3,87.5C112.3,87.5,112.3,87.4,112.3,87.5c0.1-0.1,0.1-0.1,0.2-0.1c-0.1-0.2-0.2-0.5-0.3-0.7
			c-0.1,0-0.1,0-0.2,0.1c-0.1,0.1-0.2,0.2-0.2,0.3c0,0.1,0,0.2,0,0.2C111.8,87.5,112,87.6,112.3,87.5z"/>
	</g>
</g>
<g id="Layer_2">
</g>
<g id="Layer_3">
</g>
<g id="Layer_4">
</g>
</svg>
